<svg width="96" height="80" viewBox="0 0 96 80" fill="none" xmlns="http://www.w3.org/2000/svg">
<g clip-path="url(#clip0_37_29)">
<path d="M62.7177 25.6991C94.1453 53.1032 105.646 91.3473 88.4048 111.12C71.1638 130.892 31.7101 124.705 0.282501 97.301C-31.1451 69.8969 -42.6456 31.6528 -25.4046 11.8805C-8.1636 -7.89186 31.2901 -1.70507 62.7177 25.6991Z" fill="#C7CAEB"/>
<mask id="mask0_37_29" style="mask-type:alpha" maskUnits="userSpaceOnUse" x="-34" y="0" width="131" height="123">
<ellipse cx="31.5" cy="61.4999" rx="47.5" ry="75.5" transform="rotate(-48.9123 31.5 61.4999)" fill="#fff"/>
</mask>
<g mask="url(#mask0_37_29)">
<rect width="193.596" height="2.89" transform="matrix(0.798849 -0.601532 0.485994 0.873962 -17.6943 33.2479)" fill="white"/>
<rect width="193.596" height="2.89" transform="matrix(0.798849 -0.601532 0.485994 0.873962 -22.4465 24.7024)" fill="white"/>
<rect width="193.596" height="2.89" transform="matrix(0.798849 -0.601532 0.485994 0.873962 -27.1985 16.1569)" fill="white"/>
<rect width="193.596" height="2.89" transform="matrix(0.798849 -0.601532 0.485994 0.873962 -12.9424 41.7935)" fill="white"/>
<rect width="193.596" height="2.89" transform="matrix(0.798849 -0.601532 0.485994 0.873962 -8.19043 50.339)" fill="white"/>
<rect width="193.596" height="2.89" transform="matrix(0.798849 -0.601532 0.485994 0.873962 -3.43848 58.8845)" fill="white"/>
<rect width="193.596" height="2.89" transform="matrix(0.798849 -0.601532 0.485994 0.873962 1.31348 67.4301)" fill="white"/>
<rect width="193.596" height="2.89" transform="matrix(0.798849 -0.601532 0.485994 0.873962 11.562 96.6833)" fill="white"/>
<rect width="193.596" height="2.89" transform="matrix(0.798849 -0.601532 0.485994 0.873962 6.81006 88.1378)" fill="white"/>
<rect width="193.596" height="2.89" transform="matrix(0.798849 -0.601532 0.485994 0.873962 2.05811 79.5923)" fill="white"/>
<rect width="193.596" height="2.89" transform="matrix(0.798849 -0.601532 0.485994 0.873962 16.314 105.229)" fill="white"/>
<rect width="193.596" height="2.89" transform="matrix(0.798849 -0.601532 0.485994 0.873962 21.0659 113.774)" fill="white"/>
<rect width="193.596" height="2.89" transform="matrix(0.798849 -0.601532 0.485994 0.873962 25.8181 122.32)" fill="white"/>
<rect width="193.596" height="2.89" transform="matrix(0.798849 -0.601532 0.485994 0.873962 30.5701 130.866)" fill="white"/>
</g>
</g>
<defs>
<clipPath id="clip0_37_29">
<rect width="96" height="80" fill="white"/>
</clipPath>
</defs>
</svg>
